name C:\Users\u0150099\Documents\master_thesis\3dpredictsim\Results\debug\Fal_s1_mtjc2_sc_cspx10_oy2_ATx70_MTc2_MTPm_k1_d01_MTJm_nl_MG_exp5_table_d01_PF_Natali2010_x3_ls146_ig21_wAk1e+04_wa2e+03_wpMnD1e+03.mot
datacolumns 128
datarows 4
range 0.00000000 0.03247491
endheader
time	pelvis_tilt	pelvis_list	pelvis_rotation	pelvis_tx	pelvis_ty	pelvis_tz	hip_flexion_l	hip_adduction_l	hip_rotation_l	hip_flexion_r	hip_adduction_r	hip_rotation_r	knee_angle_l	knee_angle_r	ankle_angle_l	ankle_angle_r	subtalar_angle_l	subtalar_angle_r	mtj_angle_l	mtj_angle_r	mtp_angle_l	mtp_angle_r	lumbar_extension	lumbar_bending	lumbar_rotation	arm_flex_l	arm_add_l	arm_rot_l	arm_flex_r	arm_add_r	arm_rot_r	elbow_flex_l	elbow_flex_r	pro_sup_l	pro_sup_r	glut_med1_l/activation	glut_med2_l/activation	glut_med3_l/activation	glut_min1_l/activation	glut_min2_l/activation	glut_min3_l/activation	semimem_l/activation	semiten_l/activation	bifemlh_l/activation	bifemsh_l/activation	sar_l/activation	add_long_l/activation	add_brev_l/activation	add_mag1_l/activation	add_mag2_l/activation	add_mag3_l/activation	tfl_l/activation	pect_l/activation	grac_l/activation	glut_max1_l/activation	glut_max2_l/activation	glut_max3_l/activation	iliacus_l/activation	psoas_l/activation	quad_fem_l/activation	gem_l/activation	peri_l/activation	rect_fem_l/activation	vas_med_l/activation	vas_int_l/activation	vas_lat_l/activation	med_gas_l/activation	lat_gas_l/activation	soleus_l/activation	tib_post_l/activation	flex_dig_l/activation	flex_hal_l/activation	tib_ant_l/activation	per_brev_l/activation	per_long_l/activation	per_tert_l/activation	ext_dig_l/activation	ext_hal_l/activation	ercspn_l/activation	intobl_l/activation	extobl_l/activation	glut_med1_r/activation	glut_med2_r/activation	glut_med3_r/activation	glut_min1_r/activation	glut_min2_r/activation	glut_min3_r/activation	semimem_r/activation	semiten_r/activation	bifemlh_r/activation	bifemsh_r/activation	sar_r/activation	add_long_r/activation	add_brev_r/activation	add_mag1_r/activation	add_mag2_r/activation	add_mag3_r/activation	tfl_r/activation	pect_r/activation	grac_r/activation	glut_max1_r/activation	glut_max2_r/activation	glut_max3_r/activation	iliacus_r/activation	psoas_r/activation	quad_fem_r/activation	gem_r/activation	peri_r/activation	rect_fem_r/activation	vas_med_r/activation	vas_int_r/activation	vas_lat_r/activation	med_gas_r/activation	lat_gas_r/activation	soleus_r/activation	tib_post_r/activation	flex_dig_r/activation	flex_hal_r/activation	tib_ant_r/activation	per_brev_r/activation	per_long_r/activation	per_tert_r/activation	ext_dig_r/activation	ext_hal_r/activation	ercspn_r/activation	intobl_r/activation	extobl_r/activation	
          0.00000000	         -2.90661532	         -2.05049392	          6.36926777	          0.00000000	          0.90728548	         -0.00855839	        -17.38996769	          0.93927680	         11.83923731	         23.92754512	          2.34848519	         -4.19168927	         -7.56337780	          1.92754563	          6.70951281	          1.53184739	         -1.11190054	         -4.03348633	          0.16567200	          2.67939759	         13.21368498	         -7.54469691	         -2.10175690	          1.37294156	         -4.41363431	          2.21268637	        -14.00833154	         19.38771629	         -7.50015453	        -13.53635895	          2.85061975	         37.66685480	         26.08204855	         86.51662706	         86.51662706	          0.46793204	          0.09707573	          0.05902082	          0.64017522	          0.26442835	          0.11458979	          0.05000032	          0.05000004	          0.05000003	          0.08702490	          0.11886144	          0.05000001	          0.05000002	          0.05000005	          0.05000018	          0.05000016	          0.58980852	          0.05000011	          0.05000008	          0.05000094	          0.05000037	          0.05000019	          0.39322755	          0.66209281	          0.05000002	          0.05000019	          0.05000012	          0.14887057	          0.05000484	          0.05000768	          0.05000364	          0.43529998	          0.49880598	          0.39674065	          0.37783622	          0.28381318	          0.40766599	          0.05000000	          0.09707454	          0.20852900	          0.05000002	          0.05000000	          0.09592174	          0.05000000	          0.05000000	          0.05000000	          0.06806659	          0.05000031	          0.05000119	          0.05000008	          0.05000011	          0.05000026	          0.37466324	          0.06966971	          0.09597974	          0.05000004	          0.05000008	          0.19711365	          0.21093950	          0.20954883	          0.18778003	          0.10803396	          0.05000013	          0.05000458	          0.14198488	          0.05902162	          0.07080796	          0.09778349	          0.05000002	          0.05000002	          0.14260335	          0.05000015	          0.05000004	          0.05000009	          0.05903741	          0.05976809	          0.05902131	          0.05000002	          0.05000002	          0.05000002	          0.05000006	          0.06613027	          0.05000076	          0.24166805	          0.10242746	          0.12612230	          0.21788522	          0.47082206	          0.25299718	          0.07724821	          0.09167558	          0.05000043	
          0.01082497	         -2.92128841	         -2.16810445	          6.66980471	          0.01742403	          0.90701299	         -0.00850586	        -17.43480597	          0.63260638	         11.45722518	         23.11800663	          2.81476662	         -3.86070827	         -9.23695874	          2.36415186	          6.07852136	          1.09538358	         -0.40201880	         -4.08463261	         -1.03512207	          2.76214077	         16.30178011	         -7.60054286	         -1.79792087	          1.57410741	         -4.61689182	          1.70125216	        -13.97582959	         19.28945295	         -8.37838611	        -13.47059186	          2.33043557	         39.17468168	         25.66899507	         86.51662706	         86.51662706	          0.39641319	          0.08223856	          0.05000002	          0.54233018	          0.22401283	          0.09707576	          0.05000031	          0.05000003	          0.05000002	          0.07372392	          0.10069457	          0.05000035	          0.05000015	          0.05000012	          0.05000030	          0.05000014	          0.59372029	          0.05002525	          0.05000010	          0.05000023	          0.05000013	          0.05000011	          0.33312627	          0.59651497	          0.05000001	          0.05000008	          0.05000002	          0.12611702	          0.08800517	          0.09381494	          0.07715892	          0.36937146	          0.43128914	          0.35802764	          0.34900449	          0.31717811	          0.41280551	          0.05000000	          0.08223757	          0.17665719	          0.05000002	          0.05000000	          0.08126096	          0.05000012	          0.05000000	          0.05000000	          0.05766327	          0.05000043	          0.05000003	          0.05902079	          0.05902071	          0.05000030	          0.33722470	          0.05902136	          0.08131011	          0.05000111	          0.05000016	          0.17204997	          0.18604970	          0.17752157	          0.17008601	          0.10913901	          0.05000004	          0.08522117	          0.15258728	          0.05000076	          0.05998564	          0.08654303	          0.05000013	          0.05000006	          0.35868878	          0.08223716	          0.05902081	          0.05000004	          0.05001427	          0.05063327	          0.05000073	          0.05926282	          0.05000117	          0.05000000	          0.05000635	          0.08012840	          0.08222639	          0.23779799	          0.14663784	          0.13703413	          0.18710352	          0.48985628	          0.24492494	          0.06544151	          0.07766378	          0.05000001	
          0.02164994	         -2.92870358	         -2.32685070	          6.93688490	          0.03516498	          0.90687510	         -0.00840393	        -17.35249699	          0.26128377	         10.97344496	         22.30367986	          3.26836681	         -3.52294667	        -11.09342350	          2.30459309	          5.27241899	         -0.05600672	          0.47294035	         -4.09368981	         -2.37764031	          2.78519019	         19.65688244	         -7.66895559	         -1.46423543	          1.81893899	         -4.79681965	          1.11264670	        -13.92166648	         19.11435813	         -9.23929168	        -13.44970710	          2.18651719	         40.66798374	         25.15427460	         86.51662706	         86.51662706	          0.33582495	          0.06966913	          0.05000003	          0.45943984	          0.18977447	          0.08223860	          0.05000041	          0.05000004	          0.05000003	          0.06245587	          0.08530433	          0.12934152	          0.05000010	          0.05000016	          0.05000052	          0.05000387	          0.59387000	          0.05000022	          0.05000009	          0.05000067	          0.05000041	          0.05000035	          0.28221088	          0.55110290	          0.05000003	          0.05000024	          0.05000008	          0.10684115	          0.08223856	          0.08223855	          0.08223852	          0.31291629	          0.36537041	          0.30330627	          0.29566228	          0.30250014	          0.35840793	          0.05000000	          0.06966829	          0.14965670	          0.05000001	          0.05000000	          0.06884097	          0.05118051	          0.05160554	          0.05000000	          0.05000000	          0.05000001	          0.07152996	          0.05000001	          0.05000001	          0.05000002	          0.28645890	          0.05000049	          0.06888259	          0.05000001	          0.05000008	          0.14575372	          0.31325277	          0.29780551	          0.23381360	          0.11488114	          0.05000006	          0.07220481	          0.16643621	          0.06280300	          0.08753568	          0.11721224	          0.05000003	          0.05000006	          0.44018459	          0.06966915	          0.05000005	          0.05902084	          0.10040236	          0.10432470	          0.07941674	          0.05902082	          0.06147219	          0.05902080	          0.05000001	          0.06788152	          0.06965891	          0.28538221	          0.15711428	          0.13397724	          0.29698775	          0.54019781	          0.20749047	          0.05543936	          0.06579356	          0.05000004	
          0.03247491	         -2.93006623	         -2.57052085	          7.17324661	          0.05309612	          0.90688698	         -0.00830739	        -17.08051057	         -0.20450738	         10.39749191	         21.44247337	          3.67387111	         -3.09314258	        -13.20860589	          2.10975204	          4.23245238	         -1.69900215	          1.45515657	         -4.00687474	         -3.81736032	          2.94578857	         23.26443926	         -7.68840556	         -1.10662135	          2.16146844	         -4.95211542	          0.47501067	        -13.83836697	         18.91931659	        -10.06322927	        -13.48763450	          2.38953674	         42.13306433	         24.53653216	         86.51662706	         86.51662706	          0.28449709	          0.05902083	          0.05000001	          0.38921858	          0.16076914	          0.06966917	          0.05000046	          0.05000004	          0.05000003	          0.05291005	          0.07226638	          0.21508874	          0.05000005	          0.05000007	          0.05000019	          0.05000014	          0.59022812	          0.05000057	          0.05000008	          0.05000035	          0.05000018	          0.05000011	          0.23907745	          0.53144654	          0.05000001	          0.05000009	          0.05000002	          0.09051143	          0.06966913	          0.06966913	          0.06966910	          0.26508980	          0.30952678	          0.25694859	          0.25047292	          0.25626574	          0.30362850	          0.05000000	          0.05902011	          0.12678300	          0.05000001	          0.05000000	          0.05831928	          0.07677053	          0.05000000	          0.05000001	          0.26731717	          0.26750442	          0.25894341	          0.12467971	          0.09707906	          0.10616152	          0.24447969	          0.10600983	          0.08336992	          0.06966892	          0.05000011	          0.12347656	          0.26537486	          0.25228860	          0.19807732	          0.12752067	          0.05000009	          0.06116904	          0.14109501	          0.15318857	          0.11151965	          0.09929744	          0.05000003	          0.05000002	          0.37290628	          0.05902087	          0.05034695	          0.05000003	          0.08505679	          0.08837963	          0.06727863	          0.05000001	          0.05207671	          0.05000000	          0.05901220	          0.05750644	          0.05901217	          0.35165706	          0.13310077	          0.12584181	          0.25159582	          0.66751301	          0.53968417	          0.05000000	          0.07418886	          0.05000000	
